<svg xmlns="http://www.w3.org/2000/svg" viewBox="0 0 850 420" role="img" aria-labelledby="title desc">
  <title id="title">al-wadih learning logo</title>
  <desc id="desc">Brand lockup for al-wadih learning with Arabic text التعليم الواضح.</desc>
  <defs>
    <linearGradient id="iconBg" x1="66" y1="46" x2="334" y2="344" gradientUnits="userSpaceOnUse">
      <stop offset="0" stop-color="#0f2a35"/>
      <stop offset="1" stop-color="#071521"/>
    </linearGradient>
    <linearGradient id="iconTeal" x1="102" y1="112" x2="298" y2="300" gradientUnits="userSpaceOnUse">
      <stop offset="0" stop-color="#32e0b8"/>
      <stop offset="1" stop-color="#168f7d"/>
    </linearGradient>
  </defs>
  <rect x="28" y="28" width="364" height="364" rx="82" fill="url(#iconBg)"/>
  <path d="M210 76 336 210 210 344 84 210Z" fill="none" stroke="#1fc7a0" stroke-width="14" opacity=".82"/>
  <path d="M210 114 304 210 210 306 116 210Z" fill="#0f2532" stroke="#d8b868" stroke-width="11"/>
  <path d="M130 171c31-16 59-12 80 12v98c-21-24-49-29-80-13V171Z" fill="none" stroke="url(#iconTeal)" stroke-width="15" stroke-linejoin="round"/>
  <path d="M290 171c-31-16-59-12-80 12v98c21-24 49-29 80-13V171Z" fill="none" stroke="url(#iconTeal)" stroke-width="15" stroke-linejoin="round"/>
  <path d="M210 134v156" stroke="#d8b868" stroke-width="10" stroke-linecap="round"/>
  <path d="M160 314h100" stroke="#d8b868" stroke-width="13" stroke-linecap="round"/>
  <circle cx="210" cy="210" r="18" fill="#1fc7a0"/>
  <g transform="translate(450 102)">
    <text x="0" y="82" fill="#f8fbfb" font-family="Helvetica Neue, Arial, sans-serif" font-size="72" font-weight="800" letter-spacing="0">al-wadih</text>
    <text x="0" y="158" fill="#b7c9c5" font-family="Helvetica Neue, Arial, sans-serif" font-size="58" font-weight="650" letter-spacing="0">learning</text>
    <text x="0" y="246" fill="#d8b868" font-family="Noto Naskh Arabic, Geeza Pro, Times New Roman, serif" font-size="64" font-weight="700">التعليم الواضح</text>
  </g>
</svg>
